<?xml version="1.0"?>
<svg viewBox="0 0 1000 310" xmlns="http://www.w3.org/2000/svg" xmlns:svg="http://www.w3.org/2000/svg" enable-background="new 0 0 1000 310" version="1.1" xml:space="preserve">
 <g class="layer" display="inline">
  <title>Layer 1</title>
  <g id="svg_1">
   <path d="m362.2,106.1c12.1,-11.8 19.6,-12.2 19.6,-12.2c2.8,0 5.5,0.5 8.1,1.7c5.7,1.9 6,5.1 6,5.1l0,86.8c0.7,24.3 -5.3,33.6 -12.5,40.1c-2.2,2 -4.9,3.3 -7.8,3.8c-0.8,0.2 -1.7,-0.3 -1.9,-1.1c0,0 0,0 0,0c0,-0.1 -0.1,-0.2 -0.1,-0.4c0.1,-1.7 0.5,-3.3 1.1,-4.9c3.6,-9.4 3.3,-25.5 3.3,-25.5l0.3,-93.5c0,0 0.3,-1.7 -1.2,-1c-14.2,12.2 -16,29.5 -16.5,37.9c-0.2,12.6 5.1,19.1 5.1,19.1c0.8,0.8 1.3,1.9 1.2,3c0.1,1.1 -0.7,2.1 -1.8,2.2l-0.3,0c-5.4,-0.5 -13.9,-6.6 -17,-13.9c-1.6,-3.5 -2.5,-7.4 -2.6,-11.2c1.4,-13.6 7.4,-26.3 17,-36l0,0zm622.2,83c0,27.9 -16.9,27.5 -16.9,27.5c-16.1,0.6 -20.2,-16.4 -21.2,-33.7c-0.8,-13 0,-27.5 0,-27.5s0,-0.7 -0.6,0c-5.4,9.7 -9,24.6 -10.8,36c-0.8,5.1 -1.3,10.2 -1.4,15.3c0.2,1 -0.3,2 -1.1,2.6c-8.8,4 -14.3,-1.7 -16.3,-8.1c-2.6,-6 -4.2,-42.3 -4.2,-44.2c0,-1.9 -1.5,-0.6 -1.5,-0.6c-12.1,20.1 -12.2,49.9 -12.2,55.9c0,6 -10.2,4.1 -10.2,4.1c-8.8,-0.7 -8.4,-4.9 -8.4,-4.9l-0.4,-7.2c-3,5.6 -8.7,12.8 -17.3,12.3c-13.1,-0.8 -15.7,-14.4 -15.9,-16.7c0,0 -6.5,16.9 -24.5,16.7c-12.2,-0.2 -17.1,-12.8 -17.1,-12.8s-4.9,13.2 -16.9,12.8c-12,-0.4 -21.9,-14.3 -21.2,-32.3c0.2,-9.1 1.4,-18.2 3.6,-27c0,0 1,-1.7 -0.7,-1.9c-1.6,-0.2 -12,0.2 -12,0.2s-5.8,23.5 -30.7,52.8l0.2,19.3c0,19.2 -2.4,45 -28.5,47.1c-22.5,-1.5 -21.3,-18.9 -21.3,-18.9c-0.5,-5.1 2.7,-14.5 16.1,-27.1l18.8,-17.5l-0.5,-8.1c-8.6,14.3 -21.8,13.5 -21.8,13.5s-10.2,2.1 -18.7,-13c-2.5,5.1 -8.2,14 -17.6,13c-13.1,-1.5 -15.7,-14.5 -15.9,-16.9c0,0 -6.6,17.1 -24.6,16.9c-12.2,-0.2 -17.2,-12.9 -17.2,-12.9c-1.4,-2.8 -2.4,-5.7 -3.1,-8.8l-0.5,1.6c-2.8,7.1 -9.7,19.5 -20.2,19.7c-19.4,0 -20.2,-30.1 -20.2,-30.1c-5.7,13.5 -16.6,30.4 -37.1,30.3c-20.4,-0.1 -23,-7.5 -23,-8.6c-0.2,-2.1 0.5,-4.1 1.9,-5.6c2.4,-3.4 4.3,-4.8 6,-4.8c1.7,0.5 3.3,1.3 4.6,2.5c2.6,2.5 6,4 9.6,4.3c6.4,-0.2 7.8,-5.4 8.3,-10.7s-3.3,-10.9 -8.4,-15.6l-9.1,-8.3l-17.1,28.1c-9.9,16.2 -19.8,18.7 -23.6,18.2c-5.2,-0.7 -10.2,-6.1 -10.5,-21.8l1.2,-43.9c0,-1.4 -1.3,-0.7 -1.3,-0.7c-19.6,20.8 -25.5,63.7 -25.5,64.5c-0.7,1.2 -2.1,1.9 -3.5,1.8c-1.8,0 0.6,0 -6.4,-0.4c-7,-0.4 -6.5,-13.5 -6.5,-13.5l0.5,-63.9c0,-2.1 2.1,-3 8.8,-1.3c6.7,1.8 6.4,3.8 6.4,3.8l-0.2,37.1c17.2,-50.7 30.1,-42.8 38,-38.9c7.9,3.9 6.7,9.5 6.7,9.5l-1.2,37.7c-0.4,9.8 1,13.7 3.3,14.1c5.6,1.3 25.1,-36.4 25.1,-36.4c-8.7,-9.4 -3.9,-20.8 2.8,-25.8c3,-2.1 6.6,-3.4 10.2,-3.7c0,0 8.8,-0.5 8.5,6.9c0.2,8.1 -8.8,17.9 -8.8,17.9c17.4,12.4 25.5,19 26.9,28.6c0.4,2.5 0.2,5.1 -0.5,7.6c12.4,-10.8 13.3,-22.8 13.3,-22.8l0.2,-40.3l-18.4,-0.2c0,0 -1.4,0 -1.7,-3.5c-0.2,-3.4 1,-6.7 3.4,-9.1l17.5,0.2l0.7,-21.1c0.6,-4.2 3.3,-4.8 11,-2.8c7.7,2 7.7,3.7 7.7,3.7l-0.9,21.2l21.9,1.2c2.6,0.2 3.4,0.9 2.8,5.2c0,2.2 -1.2,4.3 -3.2,5.4l-21.7,0.5l-1.5,46.8c0,7.2 0.3,24.3 7.1,24.1c9.5,0.5 15.1,-20.7 15.1,-20.7l0,-0.2c-0.1,-3.9 0,-7.8 0.4,-11.7c1.8,-17 9.5,-37 26.8,-37c6.9,0.2 13.1,4.1 16.2,10.2l0.3,-3.8c0,0 -0.4,-4.6 6.9,-3.5c7.3,1.1 9.8,4 9.7,6.4l-0.6,47.2c1,10.2 2.7,16.2 7.9,15.8c4.5,-0.7 7.7,-6.8 9.6,-12c-6.5,-53.9 23,-60.5 23,-60.5s13.1,-0.9 19,9.9l0.2,-3.6c0,0 -0.6,-4.8 6.3,-3.5c2,0.3 4,0.8 6,1.5c3.1,1.1 4,1.9 4,4.8l-0.6,53.3c0,0 15.3,-20.6 19.2,-40.7c-3.1,-2.3 -5,-5.9 -5.1,-9.7c0.4,-5.7 3.3,-12.6 11.7,-12.6c8.5,0 9.1,7.5 7.9,12.6c4.5,-0.6 8.9,-1.4 13.3,-2.6c6.2,-1.7 14.4,-2.5 15,7.1c0.2,2.1 -0.2,4.2 -1.1,6.1c0,0 -4.9,21.3 -4.1,29.9s3.1,21.6 9.8,20.1c6.7,-1.5 9,-11.1 9,-11.1c-1.7,-7.9 -2.1,-15.9 -1.4,-23.9c1.8,-16.9 9.3,-36.7 26.7,-36.7c6.9,0.1 13.1,4.1 16.1,10.2l0.2,-3.8c0,0 -0.4,-4.6 6.9,-3.5c7.3,1.1 9.8,4 9.6,6.3l-0.6,46.8c1,10.2 2.7,16.1 7.9,15.7c5.2,-0.4 9.2,-8.5 11.8,-15.3l0,-2.5l0.2,-49.7c0.1,-1.6 1.4,-2.9 3,-3l6,0.9c8.4,1.2 7.2,4.4 7.2,4.4l0,28.1c6.2,-19.1 9.2,-26.4 12,-31.2c2.4,-4.1 10.2,-1.4 10.2,-1.4s8.5,2.3 8.6,10.2c-0.3,13 1.6,34.1 1.6,34.1s0.3,0.4 0.5,0.3c0.1,-0.1 0.1,-0.3 0.1,-0.5c2.4,-14.4 6.6,-28.4 12.5,-41.7c3.1,-5.8 12,-1.7 12,-1.7c10.7,3.7 9.3,10 9.3,10c-3.2,54.5 3.6,58 7.6,58.4c4,0.4 6.1,-4.8 6.9,-7.2s1.9,-7.8 2.5,-9.9c0.4,-1.2 1.5,-2.1 2.8,-2.2c1.3,0.2 2.4,1.2 2.6,2.6l0,-0.1zm-362,-41.8c-3.7,0.1 -12.6,2.5 -14.2,27.2s4.9,30.9 10.4,31.7s15.3,-8.1 15.8,-34.2c0.5,-26.3 -12,-24.7 -12,-24.7zm77.1,0c-3.8,0.1 -13.4,3.5 -15.6,27.2c-1.6,24.9 5.1,31.3 10.6,32.1c5.5,0.8 15.3,-8.2 16,-34.7c0.7,-26.5 -11,-24.5 -11,-24.5l0,-0.1zm12.7,76.2c-21.8,18.8 -23.6,32.2 -23.6,32.2s-2.2,11 8.3,11.6c12.6,1.3 14.7,-14 15,-27.4l0.4,-16.2l-0.1,-0.2zm119.4,-75.4c-3.8,0.2 -12.6,2.6 -14.2,27.2c-1.6,24.6 4.9,30.9 10.4,31.6s15.3,-8.1 15.8,-34.2c0.5,-26.1 -12,-24.6 -12,-24.6z" fill="rgb(251, 191, 36)" id="svg_2"/>
   <path d="m169.9,76.5c-2.7,0 -5.4,0.1 -8,0.4c-2.6,0.3 -5.2,0.7 -7.8,1.2c-2.6,0.5 -5.1,1.2 -7.5,1.9l-7.3,2.7l-6.8,3.3l-6.5,4l-6.1,4.6l-5.6,5.1l-5.1,5.6l-4.5,6.1l-4,6.5l-3.3,6.9c-1,2.4 -1.9,4.8 -2.7,7.2c-0.8,2.5 -1.4,5 -1.9,7.5c-0.5,2.6 -0.9,5.2 -1.2,7.8c-0.8,8 -0.4,16 1.2,23.9c1,5.1 2.6,10 4.6,14.8l3.3,6.9l4,6.5l4.5,6.1l5.1,5.6l5.6,5.1l6.1,4.6l6.5,4l6.9,3.3l7.2,2.7l7.5,1.9c7.9,1.6 15.9,2 23.9,1.2c2.6,-0.3 5.2,-0.7 7.8,-1.2l7.5,-1.9l7.2,-2.7l6.9,-3.3l6.5,-4l6.1,-4.6l5.6,-5.1l5.1,-5.6l4.6,-6.1l4,-6.5l3.3,-6.9l2.7,-7.2c0.8,-2.5 1.4,-5 1.9,-7.5l1.2,-7.8c0.3,-2.6 0.4,-5.3 0.4,-8s-0.1,-5.4 -0.4,-8c-0.3,-2.6 -0.7,-5.2 -1.2,-7.8c-0.5,-2.5 -1.2,-5.1 -1.9,-7.5l-2.7,-7.2l-3.3,-6.9l-3.9,-6.5l-4.6,-6.1l-5.1,-5.6l-5.6,-5.1l-6.1,-4.5l-6.5,-4l-6.9,-3.3l-7.2,-2.7l-7.5,-1.9l-7.8,-1.2c-2.9,-0.6 -5.5,-0.7 -8.2,-0.7l0,0zm0,27.2c1.8,0 3.5,0.1 5.3,0.3l5.1,0.8l5,1.3l4.8,1.7l4.5,2.2l4.3,2.6l4,3l3.7,3.3l3.3,3.7l2.9,4l2.6,4.3l2.2,4.5c0.6,1.5 1.2,3.1 1.7,4.8c0.5,1.6 0.9,3.3 1.3,5c0.3,1.7 0.6,3.4 0.8,5.1l0.3,5.3c0,1.8 -0.1,3.6 -0.3,5.3c-0.2,1.8 -0.4,3.5 -0.8,5.1c-0.3,1.7 -0.8,3.3 -1.3,5l-1.7,4.8l-2.2,4.5l-2.6,4.2l-2.9,4l-3.3,3.7l-3.7,3.3l-4,2.9l-4.3,2.6l-4.5,2.2l-4.8,1.7l-5,1.3l-5.2,0.8c-1.8,0.2 -3.5,0.3 -5.3,0.3c-1.8,0 -3.5,-0.1 -5.3,-0.3l-5.1,-0.8c-1.7,-0.3 -3.3,-0.8 -5,-1.3l-4.7,-1.7l-4.5,-2.2l-4.3,-2.6l-4,-2.9l-3.7,-3.3l-3.3,-3.7l-2.9,-4l-2.6,-4.3l-2.2,-4.5l-1.7,-4.8l-1.3,-5l-0.8,-5.1c-0.2,-1.8 -0.3,-3.5 -0.3,-5.3c0,-1.8 0.1,-3.5 0.3,-5.3c0.2,-1.8 0.4,-3.5 0.8,-5.1c0.3,-1.7 0.8,-3.3 1.3,-5l1.7,-4.8l2.2,-4.5l2.6,-4.3l2.9,-4l3.3,-3.7l3.7,-3.3l4,-2.9l4.3,-2.6l4.5,-2.2c1.6,-0.6 3.1,-1.2 4.7,-1.7l5,-1.3c1.7,-0.3 3.4,-0.6 5.1,-0.8c1.7,-0.2 3.6,-0.2 5.4,-0.3l0,0z" fill="#fbbf24" id="svg_3"/>
   <path d="m251.9,54.1c-0.6,0 -1.2,0 -1.9,0.1c-0.6,0.1 -1.2,0.2 -1.8,0.3c-0.6,0.1 -1.2,0.3 -1.8,0.5c-0.6,0.2 -1.2,0.4 -1.8,0.7c-0.6,0.2 -1.1,0.5 -1.7,0.8c-0.6,0.3 -1.1,0.6 -1.6,1s-1,0.7 -1.5,1.1s-1,0.8 -1.4,1.3c-0.4,0.4 -0.8,0.9 -1.2,1.4s-0.8,1 -1.1,1.5c-0.4,0.5 -0.7,1.1 -1,1.6c-0.3,0.6 -0.5,1.1 -0.8,1.7s-0.4,1.2 -0.6,1.8c-0.2,0.6 -0.3,1.2 -0.4,1.8s-0.2,1.2 -0.2,1.9c0,0.4 0,0.9 0,1.3c0,1.3 0.1,2.5 0.4,3.8c0.1,0.6 0.3,1.2 0.5,1.8c0.2,0.6 0.4,1.2 0.7,1.8c0.2,0.6 0.5,1.2 0.8,1.7c0.3,0.6 0.6,1.1 1,1.6c0.4,0.5 0.7,1 1.1,1.5c0.4,0.5 0.8,1 1.3,1.4c0.4,0.4 0.9,0.9 1.4,1.2c0.5,0.4 1,0.8 1.5,1.1c0.5,0.4 1.1,0.7 1.6,1c0.6,0.3 1.1,0.5 1.7,0.8c0.6,0.2 1.2,0.4 1.8,0.6c0.6,0.2 1.2,0.3 1.8,0.4c0.6,0.1 1.2,0.2 1.9,0.2c0.4,0 0.9,0 1.3,0c0.6,0 1.3,0 1.9,-0.1c0.6,-0.1 1.2,-0.2 1.9,-0.3c0.6,-0.1 1.2,-0.3 1.8,-0.5c0.6,-0.2 1.2,-0.4 1.8,-0.7c1.2,-0.5 2.3,-1.1 3.3,-1.8c0.5,-0.4 1,-0.7 1.5,-1.1c0.5,-0.4 0.9,-0.8 1.4,-1.3c0.4,-0.5 0.8,-0.9 1.2,-1.4c0.8,-1 1.5,-2.1 2,-3.2c0.3,-0.6 0.5,-1.1 0.8,-1.7c0.2,-0.6 0.4,-1.2 0.6,-1.8c0.2,-0.6 0.3,-1.2 0.4,-1.8c0.1,-0.6 0.2,-1.2 0.2,-1.9c0,-0.4 0,-0.9 0,-1.3c0,-0.6 0,-1.3 -0.1,-1.9c-0.1,-0.6 -0.2,-1.3 -0.3,-1.9c-0.1,-0.6 -0.3,-1.3 -0.5,-1.8c-0.6,-1.8 -1.4,-3.5 -2.4,-5.1c-0.4,-0.5 -0.7,-1 -1.1,-1.5c-0.4,-0.5 -0.8,-1 -1.3,-1.4c-0.4,-0.4 -0.9,-0.9 -1.4,-1.2s-1,-0.8 -1.5,-1.1c-0.6,-0.3 -1.1,-0.7 -1.6,-1c-0.6,-0.3 -1.1,-0.5 -1.7,-0.8c-0.6,-0.2 -1.2,-0.4 -1.8,-0.6c-0.6,-0.2 -1.2,-0.3 -1.8,-0.4c-0.6,-0.1 -1.2,-0.2 -1.9,-0.2c-0.5,0.1 -0.9,0.1 -1.4,0.1l0,0z" fill="#fbc424" id="svg_4"/>
   <path d="m154.9,1.1c-8.6,0 -16.2,0 -23.1,0.1l-18.5,0.5c-5.5,0.2 -10.3,0.5 -14.6,1c-2.2,0.2 -4.2,0.4 -6.1,0.7s-3.7,0.5 -5.5,0.8s-3.4,0.6 -5,1c-1.6,0.4 -3.1,0.7 -4.6,1.1s-2.8,0.8 -4.3,1.3c-1.4,0.5 -2.7,1 -4,1.5c-2.7,1.1 -5.2,2.2 -7.9,3.5c-2,1 -3.9,2.1 -5.7,3.1c-1.8,1.1 -3.5,2.2 -5.2,3.5c-1.7,1.3 -3.4,2.7 -5,4.1c-1.6,1.4 -3.4,3.2 -5.1,5c-2.2,2.3 -4.1,4.5 -5.8,6.6c-0.9,1.1 -1.7,2.1 -2.4,3.2c-0.7,1.1 -1.5,2.1 -2.1,3.2c-0.7,1.1 -1.3,2.2 -1.9,3.3s-1.2,2.3 -1.8,3.5c-1.1,2.4 -2.2,5 -3.2,7.9c-0.8,2.1 -1.5,4.3 -2.1,6.5c-0.6,2.2 -1.2,4.6 -1.7,7.1s-1,5.3 -1.3,8.3c-0.4,3.3 -0.7,6.6 -1,10c-0.3,3.7 -0.5,7.7 -0.7,12.2l-0.4,14.9l-0.2,18.2l-0.1,22l0.2,31.9l0.6,24.2l0.5,9.5l0.6,7.8c0.2,2.1 0.4,4.2 0.7,6.3c0.3,1.9 0.6,3.5 0.9,4.9c0.6,2.9 1.4,5.7 2.2,8.5c0.9,2.8 1.7,5.3 2.8,8c1.1,2.6 2.2,5 3.4,7.4s2.5,4.7 4,6.8c1.4,2.2 2.9,4.3 4.6,6.3c1.6,2 3.3,3.9 5.2,5.8c1.8,1.9 3.8,3.6 5.8,5.3c2,1.7 4.2,3.3 6.4,4.7c2.1,1.4 4.1,2.6 6.1,3.8c2,1.2 4.1,2.2 6.2,3.1c2.1,1 4.3,1.8 6.6,2.6c2.3,0.8 4.6,1.5 7.1,2.1c2.5,0.6 5.1,1.1 7.9,1.6s5.8,0.9 9,1.2c3.1,0.3 6.6,0.6 10.3,0.9c3.7,0.2 7.6,0.4 11.8,0.6c6.5,0.2 16.3,0.4 27.7,0.4l36.7,-0.1l34.7,-0.5l13.2,-0.4l8.6,-0.4c1.8,-0.2 3.7,-0.3 5.4,-0.5c1.8,-0.2 3.5,-0.4 5.1,-0.7c1.7,-0.3 3.3,-0.6 4.9,-0.9c1.6,-0.3 3.2,-0.7 4.8,-1.1c1.6,-0.4 3.1,-0.8 4.6,-1.3c1.5,-0.5 3,-1 4.5,-1.5c1.5,-0.6 3,-1.1 4.5,-1.8c1.5,-0.6 3,-1.3 4.5,-2c2.3,-1.1 4.1,-2 5.7,-2.9c1.5,-0.8 3,-1.8 4.4,-2.8c1.5,-1.1 3,-2.3 4.3,-3.6c1.6,-1.4 3.4,-3.2 5.6,-5.4c1.9,-1.9 3.6,-3.6 5,-5.2c1.4,-1.5 2.6,-2.9 3.7,-4.3c1,-1.3 1.9,-2.6 2.8,-4c0.8,-1.3 1.6,-2.7 2.4,-4.3c1.2,-2.3 2.2,-4.5 3.2,-6.5c0.9,-2.1 1.8,-4 2.5,-6.1c0.8,-2.1 1.4,-4.1 1.9,-6.2c0.6,-2.1 1,-4.4 1.4,-7c0.4,-2.5 0.8,-5.2 1.1,-8.3s0.6,-6.4 0.8,-10.2l0.6,-12.6l0.5,-15.8l0.4,-17.6l0.1,-18.4l-0.3,-36.1l-0.4,-16.2l-0.6,-13.9l-0.7,-10.8c-0.3,-3 -0.6,-5.4 -0.9,-7c-0.3,-1.8 -0.7,-3.5 -1.2,-5.3c-0.4,-1.7 -0.9,-3.4 -1.4,-5.1c-0.5,-1.7 -1,-3.3 -1.6,-4.9c-0.6,-1.6 -1.2,-3.2 -1.8,-4.7c-0.6,-1.5 -1.3,-3 -2,-4.5c-0.7,-1.5 -1.4,-2.9 -2.2,-4.3c-0.8,-1.4 -1.6,-2.8 -2.4,-4.1c-0.8,-1.3 -1.7,-2.6 -2.6,-3.9c-0.9,-1.3 -1.8,-2.5 -2.8,-3.7c-1,-1.2 -2,-2.3 -3,-3.5c-1.1,-1.1 -2.1,-2.2 -3.3,-3.3c-1.1,-1.1 -2.3,-2.1 -3.5,-3.1c-1.2,-1 -2.4,-1.9 -3.7,-2.8c-1.2,-0.9 -2.6,-1.8 -3.9,-2.7c-1.3,-0.8 -2.7,-1.7 -4.1,-2.4c-1.4,-0.8 -2.8,-1.5 -4.3,-2.2c-2.4,-1.2 -4.6,-2.2 -6.8,-3.1s-4.3,-1.7 -6.6,-2.4c-2.3,-0.7 -4.7,-1.4 -7.1,-1.8c-2.6,-0.5 -5.4,-1 -8.5,-1.3s-6.7,-0.7 -10.8,-1s-8.6,-0.4 -13.8,-0.6l-17.7,-0.4l-22.4,-0.3l-28.8,0l0,0zm14.9,27.2l41.3,0.2l15.6,0.3c4.3,0.1 7.6,0.3 9.5,0.4c2.5,0.2 4.9,0.5 7.2,0.8c2.3,0.3 4.4,0.7 6.5,1.1c2.2,0.4 4.1,0.9 6,1.5c1.9,0.6 3.7,1.2 5.4,1.9c1.7,0.7 3.4,1.4 5,2.3c1.6,0.8 3.1,1.7 4.6,2.7c1.5,1 2.9,2 4.3,3.2c1.4,1.1 2.7,2.4 4,3.7c1.4,1.3 2.6,2.8 3.8,4.2c1.2,1.4 2.3,3 3.2,4.5c1,1.6 1.9,3.2 2.7,5c0.8,1.8 1.6,3.6 2.2,5.5c0.7,1.9 1.3,4 1.8,6.2c0.5,2.2 1,4.7 1.4,7.1c0.4,2.4 0.7,5.2 1,8.1s0.5,6 0.7,9.3c0.2,2.6 0.3,6.1 0.4,10.3l0.3,14l0.2,34.4l-0.2,34.4l-0.3,14l-0.4,10.2c-0.3,4.8 -0.6,8.8 -1,12.3c-0.2,1.7 -0.4,3.4 -0.6,4.9s-0.5,2.9 -0.7,4.3s-0.6,2.6 -0.9,3.9c-0.3,1.3 -0.7,2.4 -1.1,3.6s-0.9,2.4 -1.3,3.6c-0.5,1.2 -1,2.5 -1.6,3.7c-0.6,1.2 -1,2.1 -1.6,3.2c-0.6,1 -1.1,2 -1.8,3c-0.6,1 -1.3,1.9 -1.9,2.8c-0.7,0.9 -1.4,1.8 -2.1,2.6c-0.7,0.8 -1.5,1.7 -2.3,2.5c-0.8,0.8 -1.6,1.6 -2.5,2.3c-0.8,0.7 -1.7,1.5 -2.6,2.1c-0.9,0.7 -1.9,1.3 -2.8,1.9c-1,0.6 -1.9,1.2 -3,1.8c-1.1,0.6 -2.1,1.1 -3.2,1.7c-1.1,0.5 -2.3,1 -3.4,1.5c-1.1,0.5 -2.4,1 -3.6,1.3c-2.5,0.8 -5.1,1.6 -7.8,2.2c-2.8,0.7 -5.7,1.2 -8.6,1.6c-1.1,0.2 -3.7,0.3 -7.4,0.5l-14,0.4l-39.7,0.5l-41.6,0.1l-16.3,-0.2l-10.6,-0.3l-7.8,-0.5c-2.4,-0.2 -4.7,-0.4 -6.8,-0.7c-2.1,-0.3 -4.1,-0.5 -5.9,-0.9c-1.9,-0.3 -3.5,-0.7 -5.2,-1.1c-1.6,-0.4 -3.1,-0.8 -4.7,-1.3c-1.5,-0.5 -2.9,-1 -4.3,-1.6c-1.4,-0.6 -2.7,-1.3 -4.1,-1.9c-1.3,-0.7 -2.7,-1.5 -4,-2.4c-1,-0.6 -1.9,-1.3 -2.9,-1.9c-1,-0.7 -1.8,-1.4 -2.7,-2.1s-1.7,-1.4 -2.5,-2.2c-0.8,-0.8 -1.6,-1.5 -2.3,-2.4c-0.7,-0.8 -1.4,-1.6 -2.1,-2.5c-0.7,-0.9 -1.3,-1.8 -1.9,-2.7c-0.6,-0.9 -1.2,-1.9 -1.8,-2.8c-0.6,-1 -1.1,-1.9 -1.6,-3c-0.5,-1.1 -1,-2.1 -1.4,-3.2c-0.5,-1.1 -0.9,-2.3 -1.3,-3.5c-0.8,-2.5 -1.6,-5 -2.1,-7.6c-0.6,-2.7 -1.1,-5.6 -1.6,-8.6c-0.4,-3.1 -0.8,-6.3 -1.1,-9.7c-0.2,-2.5 -0.4,-6.5 -0.5,-11.5l-0.3,-17.7l0.1,-45.1l0.8,-43.1l0.6,-15.2l0.3,-5c0.1,-1 0.2,-2 0.4,-2.9c0.4,-1.9 0.8,-3.8 1.2,-5.5c0.4,-1.7 0.8,-3.2 1.3,-4.8c0.5,-1.6 1,-2.9 1.5,-4.2c0.5,-1.3 1.1,-2.6 1.7,-3.8c0.6,-1.2 1.2,-2.4 1.9,-3.5c0.7,-1.1 1.5,-2.2 2.3,-3.3c0.8,-1.1 1.7,-2.1 2.7,-3.2c1,-1.1 2,-2.2 3.1,-3.3c1.3,-1.3 2.7,-2.6 4.1,-3.8c1.4,-1.2 2.8,-2.3 4.2,-3.2c1.4,-1 2.9,-1.9 4.4,-2.7c1.6,-0.8 3.1,-1.6 4.8,-2.2c1.7,-0.6 3.4,-1.2 5.3,-1.8c1.9,-0.6 3.9,-1 5.9,-1.4s4.3,-0.8 6.7,-1.1c2.4,-0.3 4.9,-0.6 7.6,-0.8c1.9,-0.2 5.1,-0.3 9.4,-0.4l15.5,-0.3l40.9,-0.7l0,0z" fill="#fbbf24" id="svg_5"/>
  </g>
 </g>
</svg>