<?xml version="1.0"?><svg xmlns="http://www.w3.org/2000/svg" id="Layer_5" data-name="Layer 5" width="512" height="512" viewBox="0 0 512 512"><defs><style>
      .cls-1 {
        stroke-width: 0px;
      }
    </style></defs><path class="cls-1" d="m432.207,390.712c0,3.314,2.686,6,6,6,7.943-.274,7.941-11.727,0-12-3.314,0-6,2.686-6,6Z"/><path class="cls-1" d="m463.326,395.249c-6.901-3.923-12.913,5.82-6.286,10.222,24.395,15.001,38.96,41.029,38.96,69.624v20.905H231.834c11.995-16.368,38.497-52.538,50.694-69.181,15.203-20.78,39.953-33.439,65.881-33.4,0,0,65.888,0,65.888,0,7.912-.069,8.214-11.579.206-11.998-.003-.067-66.032.044-66.094-.002-9.865,0-19.563,1.585-28.766,4.567l-40.471-40.472s116.628-43.851,116.628-43.851l90.025,6.803c.691.052,1.381.066,2.067.048,5.724-.124,11.331-2.762,15.062-7.106,10.704-12.233,3.32-31.888-12.966-33.96,0,0-58.665-7.485-58.665-7.485v-85.717c0-3.313-2.686-6-6-6h-30.127V25.636c0-9.925-8.075-18-18-18h-96.778c-4.808,0-9.328,1.872-12.728,5.272l-13.782,13.783-20.933-20.933c-2.343-2.343-6.143-2.343-8.485,0l-17.016,17.016-5.179,5.179c-20.9,20.9-20.9,54.907,0,75.808,20.9,20.9,54.907,20.899,75.808,0,3.44-3.44,18.466-18.465,22.194-22.194,2.343-2.343,2.343-6.142,0-8.485l-20.933-20.933,8.51-8.511h71.322v124.611h-64.669v-3.285c0-3.313-2.687-6-6-6s-6,2.687-6,6v3.285h-9.709v-25.256c0-3.313-2.687-6-6-6h-7.193c-8.674.567-7.602,12.822,1.193,12v19.256h-9.709v-3.285c0-3.313-2.687-6-6-6s-6,2.687-6,6v3.285h-31.926c-3.313,0-6,2.687-6,6,0,15.584,6.896,29.58,17.786,39.125v23.81c-51.094,4.538-92.822,50.965-92.069,102.358,0,0,0,21.894,0,21.894h-7.075c-23.945.345-41.336-24.893-32.569-47.121l8.933,11.398c.982,1.252,2.421,2.063,4,2.255,1.569.191,3.172-.251,4.423-1.234,22.128-17.343,26.022-49.456,8.68-71.584l-35.384-45.15c-14.943-19.066-40.845-24.581-61.883-14.654v-5.128c25.296-2.98,44.988-24.539,44.988-50.623v-8.177c0-15.712-12.782-28.494-28.494-28.494s-28.494,12.782-28.494,28.494v74.625c.013.464.053.929.166,1.38.192.845.589,1.633,1.111,2.321,0,0,58.098,74.132,58.098,74.132-35.301,45.994-1.626,113.82,56.425,113.56,0,0,11.719,0,11.719,0,6.259,11.17,18.207,18.742,31.897,18.742h54.264c8.242,0,15.853-2.745,21.973-7.366l20.184,20.185-144.497,29.835c-8.321,1.718-14.36,9.131-14.36,17.628v13.544c0,9.925,8.075,18,18,18h382.996c3.314,0,6-2.686,6-6v-26.905c0-32.795-16.701-62.645-44.674-79.846Zm-317.025-91.462c14.718-35.099,51.895-57.612,89.691-55.055,17.507-.831,167.695,20.342,188.572,22.466,0,0,63.495,8.102,63.496,8.102,4.594.584,8.124,4.493,7.924,8.916-.059,4.746-4.529,8.751-9.255,8.285-50.602-3.819-157.077-11.873-208.213-15.734-1.078-.082-2.16.13-3.128.613l-100.191,49.942c-2.925,1.458-6.197,2.229-9.466,2.229-15.07.292-25.618-16.049-19.43-29.764Zm64.48-208.512c-16.598-16.538-16.111-43.741.936-59.773l58.837,58.837c-16.031,17.047-43.234,17.534-59.773.936Zm68.258-9.421l-58.837-58.837,8.53-8.53c17.435,17.435,41.404,41.404,58.837,58.837l-8.53,8.53Zm86.157-54.217h-79.807c-1.591,0-3.118.632-4.243,1.757l-10.268,10.268-8.485-8.485,13.782-13.783c1.133-1.133,2.64-1.757,4.243-1.757h96.778c3.309,0,6,2.691,6,6v142.611h-12V37.636c0-3.313-2.687-6-6-6Zm-151.566,148.611h106.372c-2.715,19.22-20.166,34.251-39.584,34.034-4.078-.131-29.323.364-32.867-.402-17.336-2.427-31.325-16.235-33.921-33.632Zm24.146,43.696c4.993,1.551,10.211,2.325,15.44,2.339,6.689-.201,29.736.6,35.912-.743,22.337-3.518,40.619-22.812,42.981-45.292h87.213v78.186l-151.992-19.392c-3.043-.392-6.098-.717-9.153-1.022-9.044-.86-18.126-1.313-27.211-1.362v-15.353c2.205,1.049,4.483,1.917,6.809,2.639ZM16.024,131.415c.906-21.881,32.085-21.876,32.988,0,0,0,0,8.177,0,8.177,0,19.458-14.329,35.632-32.988,38.527v-46.705Zm52.438,85.984l35.384,45.15c12.002,15.315,10.702,36.884-2.199,50.673L18.732,207.423c16.472-9.23,37.728-5.338,49.73,9.976Zm58.894,168.034h-7.532c-46.6.457-75.219-53.594-48.741-91.756l7.882,10.057c-17.538,30.623,5.491,70.02,40.859,69.698,0,0,7.074,0,7.074,0,.019,3.501-.156,8.589.457,12Zm36.085,18.742c-12.687,0-23.156-9.677-24.415-22.037-.24-1.548-.087-12.898-.127-14.705.088-5.367-.258-30.222.311-35.124,9.162,12.638,27.426,16.929,41.341,9.752,0,0,98.711-49.205,98.711-49.205l88.147,6.661-121.274,45.598c-2.339.879-3.888,3.117-3.888,5.616v28.901c-.007,3.02-.56,6.028-1.654,8.84-3.613,9.282-12.55,15.695-22.889,15.702,0,0-54.264,0-54.264,0Zm84.879-4.628c2.878-4.396,4.783-9.417,5.538-14.619.733-3.432.265-26.115.388-30.042l12.591-4.734,40.666,40.667c-14.884,7.131-27.501,18.344-36.891,31.956l-22.654-22.653c.127-.188.236-.385.36-.575Zm-135.316,90.454v-13.544c0-2.832,2.013-5.304,4.787-5.876l138.791-28.657-39.625,54.077h-97.952c-3.309,0-6-2.691-6-6Z"/><path class="cls-1" d="m185.037,127.018c1.536,0,3.071-.586,4.243-1.757l3.144-3.144c5.422-5.809-2.676-13.907-8.485-8.485,0,0-3.144,3.144-3.144,3.144-3.794,3.689-.979,10.333,4.243,10.243Z"/><path class="cls-1" d="m168.355,105.751c2.13.199,5.131-2.202,6.907-3.176,6.648-4.351.709-14.145-6.223-10.261,0,0-3.802,2.306-3.802,2.306-5.184,3.14-2.848,11.166,3.117,11.131Z"/><path class="cls-1" d="m203.194,142.836c2.787,1.703,6.513.839,8.242-2.019l2.306-3.802c3.884-6.932-5.909-12.872-10.261-6.223,0,0-2.306,3.802-2.306,3.802-1.718,2.833-.814,6.523,2.019,8.242Z"/></svg>