<?xml version="1.0"?><svg viewBox="0 0 64 64" xmlns="http://www.w3.org/2000/svg"><g id="Outline"><g data-name="Outline" id="Outline-2"><circle cx="32" cy="57" r="1"/><path d="M42.63,45.38a23,23,0,1,0-21.26,0C8.51,46.34,2,49.07,2,53.5c0,7,16.31,8.5,30,8.5s30-1.47,30-8.5C62,49.07,55.49,46.34,42.63,45.38ZM11,25A21,21,0,1,1,40.72,44.1a.86.86,0,0,0-.29.21L32.66,52.1a1,1,0,0,1-1.27,0l-2.78-2.78,0,0-5-5a.86.86,0,0,0-.29-.21A21.06,21.06,0,0,1,11,25ZM32,60C14.73,60,4,57.51,4,53.5c0-3.28,7.17-5.55,19.67-6.27l1.94,2C19.33,49.53,11,50.56,11,53.5c0,3.33,10.62,4.2,17,4.43h0a1,1,0,0,0,0-2c-9.58-.34-14-1.72-14.91-2.43.88-.7,5.19-2,14.41-2.41L30,53.6a2.92,2.92,0,0,0,1.95.73,3.08,3.08,0,0,0,2-.77l2.46-2.47C45.7,51.46,50,52.8,50.89,53.5c-.89.71-5.33,2.09-14.91,2.43a1,1,0,0,0,0,2h0c6.33-.23,17-1.1,17-4.43,0-2.94-8.33-4-14.61-4.32l1.94-2C52.83,48,60,50.22,60,53.5,60,57.51,49.27,60,32,60Z"/><path d="M51,25A19,19,0,1,0,32,44,19,19,0,0,0,51,25ZM15,25A17,17,0,1,1,32,42,17,17,0,0,1,15,25Z"/><path d="M36.88,38.09c1.93,0,3.38-1.31,4-3.72.33-1.21.13-2.42.37-3.58.53-2.22,2.38-3.91,3.17-6.12A7.94,7.94,0,0,0,41.14,15c-2.35-1.39-5.89-1.63-9.14,1.54-3.25-3.17-6.79-2.93-9.14-1.54a7.93,7.93,0,0,0-3.29,9.66c.79,2.22,2.64,3.9,3.17,6.13.24,1.16.05,2.36.37,3.58.62,2.37,2,3.72,3.91,3.72,3.06,0,3.88-3,4.37-5.05a10.12,10.12,0,0,1,.61-1.9,10.37,10.37,0,0,1,.61,1.9C33.11,35,33.86,38,36.88,38.09ZM32,29c-1.67.1-2.12,1.86-2.54,3.55-.54,2.12-1,3.51-2.39,3.54-1.2,0-1.75-1.19-2-2.22s-.08-2.33-.36-3.52c-.53-2.48-2.39-4.16-3.25-6.38a5.94,5.94,0,0,1,2.44-7.25C27.45,14.12,31.3,18.83,34,21a1,1,0,0,0,1.18-1.62A22.22,22.22,0,0,1,33.44,18c2.1-2,4.55-2.49,6.68-1.23A5.94,5.94,0,0,1,42.56,24c-.87,2.22-2.72,3.9-3.25,6.38-.28,1.19-.09,2.4-.36,3.52s-.79,2.23-2,2.22c-1.4,0-1.85-1.42-2.39-3.54C34.12,30.86,33.67,29.1,32,29Z"/></g></g></svg>