<?xml version="1.0"?><svg xmlns="http://www.w3.org/2000/svg" id="Layer_5" data-name="Layer 5" width="512" height="512" viewBox="0 0 512 512"><defs><style>
      .cls-1 {
        stroke-width: 0px;
      }
    </style></defs><path class="cls-1" d="m127.73,214.388h4.315c3.313,0,6-2.687,6-6,0-5.201,4.231-9.432,9.432-9.432s9.432,4.231,9.432,9.432c0,3.313,2.687,6,6,6s6-2.687,6-6c0-11.818-9.614-21.432-21.432-21.432-9.758,0-18.013,6.554-20.595,15.492-7.28,1.191-6.582,11.767.847,11.94Z"/><path class="cls-1" d="m231.962,214.388c3.313,0,6-2.687,6-6,0-5.201,4.231-9.432,9.432-9.432s9.432,4.231,9.432,9.432c0,3.313,2.687,6,6,6h4.316c7.427-.173,8.129-10.75.847-11.941-2.582-8.938-10.837-15.491-20.595-15.491-11.818,0-21.432,9.614-21.432,21.432,0,3.313,2.687,6,6,6Z"/><path class="cls-1" d="m131.241,183.059c.226,0,.455-.013.685-.039l23.017-2.615c7.855-1.164,6.571-12.551-1.355-11.923,0,0-23.017,2.615-23.017,2.615-7.453,1.033-6.81,11.787.67,11.962Z"/><path class="cls-1" d="m239.93,180.405l23.017,2.615c.23.026.458.039.685.039,7.472-.173,8.131-10.926.67-11.962,0,0-23.017-2.615-23.017-2.615-7.916-.626-9.219,10.753-1.354,11.923Z"/><path class="cls-1" d="m492.583,346.387c-4.932-37.153-52.298-55.154-84.49-34.961-11.659-4.267-26.202-4.421-37.988-.536,9.587-15.437,11.109-25.17-1.06-39.601-2.643-3.414-5.376-6.943-5.893-9.717-.554-2.968.747-7.367,2.004-11.622,1.858-6.289,3.965-13.417,1.407-19.989-2.606-6.695-9.048-10.558-14.732-13.967-3.743-2.244-7.614-4.565-9.131-7-1.011-1.637-1.562-3.939-1.552-6.504v-54.778c0-19.512-3.847-38.441-11.435-56.26-1.298-3.049-4.823-4.466-7.871-3.17-3.049,1.298-4.468,4.822-3.17,7.871,6.952,16.324,10.476,33.671,10.476,51.559v54.754c-.034,11.885,6.055,17.951,16.512,23.82,4.23,2.537,8.604,5.16,9.721,8.028,1.071,2.751-.354,7.573-1.732,12.236-1.659,5.614-3.375,11.419-2.292,17.223,1.049,5.626,4.686,10.322,8.202,14.863,3.044,3.932,6.193,7.998,6.193,11.163,0,5.399-3.397,10.972-7.16,16.848-31.56-12.254-70.515,7.294-74.528,39.74-.756,3.892-1.325,7.627-1.708,11.229-16.096-11.442-34.203-15.282-42.596-16.504-.176-1.263-.07-7.85-.097-9.242,30.675-8.688,53.515-35.535,55.596-67.814,38.995-5.592,41.445-60.342,3.146-69.32.756-12.989,1.41-27.448-1.739-40.055,2.256.174,4.534.267,6.834.267,7.88-.251,7.999-11.704,0-12-41.485.339-76.462-34.644-76.129-76.13,0,0,0-5.754,0-5.754-.275-7.931-11.718-7.953-12,0,.143,42.111-32.367,76.992-72.629,81.346-6.724.968-29.772.392-36.822.538,0,0-19.514,0-19.514,0-7.941.274-7.941,11.726,0,12,0,0,11.752,0,11.752,0-3.092,12.507-2.435,26.915-1.687,39.788-38.326,8.994-35.823,63.742,3.146,69.32,2.081,32.279,24.922,59.126,55.596,67.814-.028,1.43.08,7.94-.096,9.237-11.83,1.713-42.881,8.579-60.402,34.536-5.49,3.121-10.599,6.754-15.276,10.837-4.433-5.168-10.618-8.519-16.559-11.789-6.428-3.524-12.5-6.852-15.136-11.681-2.567-4.703-2.092-11.544-1.589-18.787,1.437-16.045-.2-23.226-9.243-36.602-4.004-6.236-7.786-12.126-7.786-17.823,0-3.165,3.148-7.231,6.193-11.163,3.516-4.542,7.152-9.237,8.202-14.863,1.082-5.804-.633-11.609-2.293-17.223-1.378-4.663-2.803-9.484-1.732-12.236,1.117-2.868,5.491-5.491,9.721-8.028,4.963-2.976,10.096-6.053,13.172-10.989,2.785-4.511,3.353-9.466,3.34-12.804v-54.781c-.106-118.735,147.049-176.695,227.939-89.921,5.522,5.609,14.028-2.169,8.765-8.197C214.101-45.05,53.662,18.103,53.725,147.714c0-.002,0,54.803,0,54.803.01,2.54-.541,4.841-1.537,6.455-1.532,2.458-5.402,4.778-9.146,7.023-15.613,8.746-18.984,16.837-13.326,33.956,1.257,4.254,2.557,8.653,2.004,11.622-.517,2.773-3.25,6.303-5.893,9.717-4.08,5.27-8.705,11.242-8.705,18.51-.213,14.513,12.924,25.426,16.7,37.78,2.744,12.604-3.611,28.959,3.386,41.182,4.32,7.913,12.24,12.255,19.9,16.454,5.601,3.095,10.462,5.639,13.796,9.751-8.262,9.363-14.631,20.366-18.621,32.503l-23.891,72.657c-1.318,3.728,1.724,7.983,5.7,7.874,61.078,0,291.581.204,327.79-.112,9.338,1.198,18.512-6.15,19.338-15.544,0,0,6.124-55.661,6.124-55.661h1.958l6.124,55.661c.826,9.504,10.25,16.912,19.653,15.52,43.485-5.4,48.454-39.202,52.083-63.883,1.582-10.76,3.076-20.922,7.254-25.555,18.787-20.829,24.056-41.712,18.168-72.039Zm-194.729-139.398c22.476,7.283,21.002,39.516-2.008,44.806l2.008-44.806Zm-217.019,22.137c0-10.368,6.748-19.163,16.181-22.137l2.008,44.806c-10.393-2.305-18.189-11.593-18.189-22.669Zm21.327,266.874l3.54-30.526c.382-3.292-1.977-6.27-5.269-6.651-3.293-.379-6.269,1.978-6.651,5.269l-3.7,31.908h-47.703l21.302-64.783c5.669-17.24,16.802-31.889,31.711-41.919l14.899,50.332c.493,1.666,1.684,3.036,3.264,3.756,1.579.718,3.396.719,4.976.001l4.736-2.157-6.648,14.597c-.599,1.316-.703,2.804-.293,4.19l10.651,35.982h-24.815Zm37.33,0l-11.023-37.239,12.365-27.15c1.037-2.278.552-4.96-1.218-6.729s-4.453-2.255-6.729-1.218l-13.048,5.942-14.344-48.458c11.799-16.47,30.883-23.561,43.213-26.54-1.482,1.434-2.155,3.639-1.683,5.647l6.875,135.745h-14.407Zm143.91-234.571c-.677,15.116-6.513,28.969-16.061,39.664-1.715-8.344-8.935-43.456-10.497-51.055,11.24-1.475,20.601-6.492,27.691-14.779-.105,2.174-1.113,24.776-1.132,26.17Zm-175.542-80.52c-.394-8.804.484-17.516,2.612-25.961h23.012c37.552.223,72.902-23.309,86.997-58.523,9.94,28.264,34.141,49.715,63.324,56.29,2.558,9.136,3.635,18.603,3.206,28.195-.046,1.309-.868,19.427-.945,20.201-.336,5.727-5.767,38.057-37.067,37.431-8.286-1.26-14.746-5.753-21.561-10.505-21.177-16.137-38.862-16.106-60.003,0-6.815,4.751-13.274,9.244-21.561,10.505-31.285.623-36.738-31.69-37.066-37.417-.187-.856-.82-18.888-.947-20.215Zm3.608,80.52c-.016-1.293-1.033-24.122-1.132-26.17,7.09,8.287,16.451,13.304,27.691,14.779-1.523,7.406-8.826,42.928-10.497,51.055-9.549-10.694-15.384-24.547-16.061-39.664Zm117.488,234.571h-63.041c-1.15-22.706-4.412-87.116-5.607-110.702,13.559,6.196,28.639,8.773,43.467,7.745v41.53c0,3.313,2.687,6,6,6s6-2.687,6-6v-43.168c6.458-1.327,12.773-3.359,18.788-6.107l-5.607,110.703Zm6.82-134.655l-.515,10.177c-23.035,12.98-52.615,12.98-75.65,0l-.49-9.667-.039-.772c5.203-5.969,8.141-13.946,8.127-21.842,0,0,0-3.291,0-3.291,18.822,7.384,37.063,8.696,56.211,1.442,0,0,4.241-1.441,4.241-1.441-.506,8.991,2.064,18.316,8.128,25.133l-.013.261Zm-21.795-33.471c-22.309,6.974-40.804-2.885-61.536-9.666-5.184-1.982-10.064-4.62-14.565-7.875l1.655-8.05c7.32,2.284,19.375,5.735,28.557,6.815,3.23.399,6.287-1.954,6.66-5.258.387-3.291-1.967-6.273-5.258-6.66-8.664-1.019-20.798-4.588-27.529-6.717l4.155-20.206c5.371,1.594,13.722,3.562,22.679,3.964,7.726-.241,8.04-11.339.31-11.992-8.383-.441-15.948-2.36-20.561-3.783l1.751-8.517c9.756-2.121,17.268-7.358,23.996-12.048,7.663-5.343,14.281-9.957,23.139-9.957s15.476,4.614,23.139,9.956c6.728,4.691,14.24,9.928,23.997,12.049l1.753,8.524c-4.592,1.421-12.13,3.332-20.562,3.776-7.728.653-7.417,11.751.31,11.992,8.958-.402,17.306-2.37,22.679-3.964l4.155,20.207c-6.727,2.128-18.853,5.696-27.529,6.716-3.291.387-5.645,3.369-5.258,6.66.373,3.303,3.43,5.657,6.66,5.258,9.182-1.08,21.238-4.531,28.557-6.815l1.655,8.05c-5.146,3.724-10.809,6.646-16.82,8.69-.907.292-26.149,8.94-26.189,8.851Zm41.397,168.127h-14.407c1.29-25.481,5.567-109.904,6.875-135.749.451-1.974-.131-4.15-1.692-5.652,9.981,2.403,24.385,7.495,35.745,18.069.387,6.819,1.701,13.583,4.068,19.993l-10.936,36.944-13.048-5.942c-2.278-1.037-4.96-.552-6.729,1.218-1.77,1.77-2.255,4.452-1.218,6.729l12.365,27.15-11.023,37.239Zm49.41,0l-3.7-31.908c-.382-3.292-3.358-5.653-6.651-5.269-3.292.381-5.651,3.359-5.269,6.651l3.54,30.526h-24.815l10.651-35.982c.41-1.386.306-2.874-.293-4.19l-6.648-14.597,4.736,2.157c1.58.72,3.395.72,4.976-.001,1.581-.72,2.771-2.09,3.264-3.756l9.373-31.664c2.483,3.632,5.307,7.161,8.277,10.461,4.178,4.632,5.672,14.795,7.254,25.555,2.518,17.131,5.696,38.647,21.937,52.019h-26.632Zm160.715-85.611c-6.611,7.33-8.362,19.238-10.215,31.846-3.574,24.309-7.269,49.446-41.689,53.721-1.504.187-2.979-.227-4.163-1.163-1.179-.932-1.919-2.268-2.084-3.762l-6.144-55.85c-.658-5.985-5.696-10.499-11.717-10.499h-2.338c-6.021,0-11.059,4.514-11.717,10.499l-6.144,55.85c-.165,1.494-.904,2.83-2.084,3.762-2.399,2.026-5.637.901-8.392.488-27.907-4.664-34.348-27.516-37.456-53.052-1.956-12.649-3.28-23.768-10.219-31.84-15.835-17.275-20.649-35.661-15.208-62.24,2.971-25.13,34.305-39.925,58.843-30.132-5.786,3.09-11.103,5.61-18.947,5.61-3.313,0-6,2.687-6,6s2.687,6,6,6c11.573,0,19.012-4.009,26.205-7.887,2.704-1.458,5.353-2.884,8.236-4.103,5.696-2.454,11.86-3.551,18.052-3.528,6.196-.023,12.365,1.076,18.064,3.533,2.878,1.218,5.525,2.642,8.225,4.098,7.193,3.877,14.631,7.887,26.205,7.887,3.313,0,6-2.687,6-6s-2.687-6-6-6c-7.844,0-13.162-2.52-18.948-5.611,24.543-9.774,55.864,4.974,58.844,30.133,5.266,26.622,1.073,44.261-15.208,62.239Z"/><path class="cls-1" d="m312.518,78.834c3.314,0,6-2.686,6-6-.274-7.943-11.727-7.941-12,0,0,3.314,2.686,6,6,6Z"/></svg>